<svg xmlns="http://www.w3.org/2000/svg" xmlns:xlink="http://www.w3.org/1999/xlink" preserveAspectRatio="xMidYMid" width="18" height="20" viewBox="0 0 18 20">
  <defs>
    <style>

      .cls-2 {
        fill: #ffffff;
        filter: url(#color-overlay-1);
        opacity: 0.54;
      }
    </style>

    <filter id="color-overlay-1" filterUnits="userSpaceOnUse">
      <feFlood flood-color="#696969" flood-opacity="1"/>
      <feComposite operator="in" in2="SourceGraphic"/>
      <feBlend mode="normal" in2="SourceGraphic" result="colorOverlay"/>
    </filter>
  </defs>
  <path d="M15.000,14.135 C14.240,14.135 13.560,14.436 13.040,14.908 C13.040,14.908 5.910,10.743 5.910,10.743 C5.960,10.512 6.000,10.281 6.000,10.040 C6.000,9.799 5.960,9.568 5.910,9.337 C5.910,9.337 12.960,5.212 12.960,5.212 C13.500,5.714 14.210,6.025 15.000,6.025 C16.660,6.025 18.000,4.681 18.000,3.014 C18.000,1.348 16.660,0.004 15.000,0.004 C13.340,0.004 12.000,1.348 12.000,3.014 C12.000,3.255 12.040,3.486 12.090,3.717 C12.090,3.717 5.040,7.842 5.040,7.842 C4.500,7.340 3.790,7.029 3.000,7.029 C1.340,7.029 -0.000,8.374 -0.000,10.040 C-0.000,11.706 1.340,13.051 3.000,13.051 C3.790,13.051 4.500,12.740 5.040,12.238 C5.040,12.238 12.160,16.413 12.160,16.413 C12.110,16.624 12.080,16.845 12.080,17.066 C12.080,18.681 13.390,19.996 15.000,19.996 C16.610,19.996 17.920,18.681 17.920,17.066 C17.920,15.450 16.610,14.135 15.000,14.135 Z" id="path-1" class="cls-2" fill-rule="evenodd"/>
</svg>
