<svg xmlns="http://www.w3.org/2000/svg" xmlns:xlink="http://www.w3.org/1999/xlink" preserveAspectRatio="xMidYMid" width="15" height="15" viewBox="0 0 15 15">
  <defs>
    <style>

      .cls-2 {
        fill: #ffffff;
      }
    </style>
  </defs>
  <path d="M11.250,7.500 C11.250,6.025 10.400,4.758 9.167,4.142 C9.167,4.142 9.167,5.983 9.167,5.983 C9.167,5.983 11.208,8.025 11.208,8.025 C11.233,7.858 11.250,7.683 11.250,7.500 ZM13.333,7.500 C13.333,8.283 13.167,9.017 12.883,9.700 C12.883,9.700 14.142,10.958 14.142,10.958 C14.692,9.925 15.000,8.750 15.000,7.500 C15.000,3.933 12.508,0.950 9.167,0.192 C9.167,0.192 9.167,1.908 9.167,1.908 C11.575,2.625 13.333,4.858 13.333,7.500 ZM1.058,0.000 C1.058,0.000 -0.000,1.058 -0.000,1.058 C-0.000,1.058 3.942,5.000 3.942,5.000 C3.942,5.000 -0.000,5.000 -0.000,5.000 C-0.000,5.000 -0.000,10.000 -0.000,10.000 C-0.000,10.000 3.333,10.000 3.333,10.000 C3.333,10.000 7.500,14.167 7.500,14.167 C7.500,14.167 7.500,8.558 7.500,8.558 C7.500,8.558 11.042,12.100 11.042,12.100 C10.483,12.533 9.858,12.875 9.167,13.083 C9.167,13.083 9.167,14.800 9.167,14.800 C10.317,14.542 11.358,14.008 12.242,13.292 C12.242,13.292 13.942,15.000 13.942,15.000 C13.942,15.000 15.000,13.942 15.000,13.942 C15.000,13.942 7.500,6.442 7.500,6.442 C7.500,6.442 1.058,0.000 1.058,0.000 ZM7.500,0.833 C7.500,0.833 5.758,2.575 5.758,2.575 C5.758,2.575 7.500,4.317 7.500,4.317 C7.500,4.317 7.500,0.833 7.500,0.833 Z" id="path-1" class="cls-2" fill-rule="evenodd"/>
</svg>
