<svg xmlns="http://www.w3.org/2000/svg" xmlns:xlink="http://www.w3.org/1999/xlink" preserveAspectRatio="xMidYMid" width="12" height="15" viewBox="0 0 12 15">
  <defs>
    <style>

      .cls-2 {
        fill: #ffffff;
      }
    </style>
  </defs>
  <path d="M6.000,3.000 C6.000,3.000 6.000,0.000 6.000,0.000 C6.000,0.000 2.250,3.750 2.250,3.750 C2.250,3.750 6.000,7.500 6.000,7.500 C6.000,7.500 6.000,4.500 6.000,4.500 C8.483,4.500 10.500,6.518 10.500,9.000 C10.500,11.482 8.483,13.500 6.000,13.500 C3.517,13.500 1.500,11.482 1.500,9.000 C1.500,9.000 -0.000,9.000 -0.000,9.000 C-0.000,12.315 2.685,15.000 6.000,15.000 C9.315,15.000 12.000,12.315 12.000,9.000 C12.000,5.685 9.315,3.000 6.000,3.000 Z" id="path-1" class="cls-2" fill-rule="evenodd"/>
</svg>
