<svg xmlns="http://www.w3.org/2000/svg" xmlns:xlink="http://www.w3.org/1999/xlink" preserveAspectRatio="xMidYMid" width="14" height="15" viewBox="0 0 14 15">
  <defs>
    <style>

      .cls-2 {
        fill: #ffffff;
      }
    </style>
  </defs>
  <path d="M3.111,3.750 C3.111,3.750 10.889,3.750 10.889,3.750 C10.889,3.750 10.889,6.000 10.889,6.000 C10.889,6.000 14.000,3.000 14.000,3.000 C14.000,3.000 10.889,0.000 10.889,0.000 C10.889,0.000 10.889,2.250 10.889,2.250 C10.889,2.250 1.556,2.250 1.556,2.250 C1.556,2.250 1.556,6.750 1.556,6.750 C1.556,6.750 3.111,6.750 3.111,6.750 C3.111,6.750 3.111,3.750 3.111,3.750 ZM10.889,11.250 C10.889,11.250 3.111,11.250 3.111,11.250 C3.111,11.250 3.111,9.000 3.111,9.000 C3.111,9.000 -0.000,12.000 -0.000,12.000 C-0.000,12.000 3.111,15.000 3.111,15.000 C3.111,15.000 3.111,12.750 3.111,12.750 C3.111,12.750 12.444,12.750 12.444,12.750 C12.444,12.750 12.444,8.250 12.444,8.250 C12.444,8.250 10.889,8.250 10.889,8.250 C10.889,8.250 10.889,11.250 10.889,11.250 Z" id="path-1" class="cls-2" fill-rule="evenodd"/>
</svg>
